<svg width="16" height="16" viewBox="0 0 16 16" fill="none" xmlns="http://www.w3.org/2000/svg">
<path fill-rule="evenodd" clip-rule="evenodd" d="M1.33334 7.99998C1.33334 4.31998 4.32001 1.33331 8.00001 1.33331C11.68 1.33331 14.6667 4.31998 14.6667 7.99998C14.6667 11.68 11.68 14.6666 8.00001 14.6666C4.32001 14.6666 1.33334 11.68 1.33334 7.99998ZM2.66668 7.99998C2.66668 10.94 5.06001 13.3333 8.00001 13.3333C10.94 13.3333 13.3333 10.94 13.3333 7.99998C13.3333 5.05998 10.94 2.66665 8.00001 2.66665C5.06001 2.66665 2.66668 5.05998 2.66668 7.99998ZM8.66668 10.6666V12H7.33334V10.6666H8.66668ZM5.45334 5.88665C5.82001 4.67331 7.03334 3.82665 8.40668 4.02665C9.56668 4.19998 10.48 5.17998 10.64 6.33998C10.7921 7.41567 10.1972 7.93471 9.62298 8.43567C9.51748 8.52772 9.41268 8.61915 9.31334 8.71331C9.23334 8.78665 9.16001 8.85998 9.09334 8.93998C9.09001 8.94331 9.08668 8.94831 9.08334 8.95331C9.08001 8.95831 9.07668 8.96331 9.07334 8.96665C9.00668 9.04665 8.94001 9.13331 8.88668 9.22665C8.88001 9.23665 8.87501 9.24665 8.87001 9.25665C8.86501 9.26665 8.86001 9.27665 8.85334 9.28665C8.74001 9.48665 8.66668 9.71998 8.66668 9.99998H7.33334C7.33334 9.66665 7.38668 9.39331 7.46668 9.16665C7.4696 9.15788 7.47124 9.15039 7.47272 9.14362C7.47462 9.13495 7.47627 9.12747 7.48001 9.11998C7.48334 9.10998 7.48834 9.10165 7.49334 9.09331C7.49834 9.08498 7.50334 9.07665 7.50668 9.06665C7.55334 8.94665 7.61334 8.83331 7.67334 8.73331C7.67668 8.72665 7.68001 8.72165 7.68334 8.71665C7.68668 8.71165 7.69001 8.70665 7.69334 8.69998C7.69334 8.69665 7.69501 8.69498 7.69668 8.69331C7.69834 8.69165 7.70001 8.68998 7.70001 8.68665C7.92706 8.3447 8.23157 8.11051 8.51635 7.8915C8.92557 7.57678 9.29403 7.29341 9.33334 6.76665C9.38668 6.11998 8.92001 5.49998 8.28668 5.36665C7.60001 5.21998 6.96668 5.62665 6.75334 6.21998C6.66001 6.47331 6.44001 6.66665 6.16668 6.66665H6.03334C5.62668 6.66665 5.33334 6.27331 5.45334 5.88665Z" fill="#595959"/>
</svg>
