<svg width="12" height="12" viewBox="0 0 12 12" fill="none" xmlns="http://www.w3.org/2000/svg">
<path fill-rule="evenodd" clip-rule="evenodd" d="M0.166664 5.99999C0.166664 2.77999 2.77416 0.166656 5.99416 0.166656C9.22 0.166656 11.8333 2.77999 11.8333 5.99999C11.8333 9.21999 9.22 11.8333 5.99416 11.8333C2.77416 11.8333 0.166664 9.21999 0.166664 5.99999ZM8.91666 4.54166C8.91666 5.02582 8.52583 5.41666 8.04166 5.41666C7.5575 5.41666 7.16666 5.02582 7.16666 4.54166C7.16666 4.05749 7.5575 3.66666 8.04166 3.66666C8.52583 3.66666 8.91666 4.05749 8.91666 4.54166ZM3.95833 5.41666C4.4425 5.41666 4.83333 5.02582 4.83333 4.54166C4.83333 4.05749 4.4425 3.66666 3.95833 3.66666C3.47416 3.66666 3.08333 4.05749 3.08333 4.54166C3.08333 5.02582 3.47416 5.41666 3.95833 5.41666ZM8.77083 7.60416C8.21666 8.56082 7.18416 9.20832 6 9.20832C4.81583 9.20832 3.78333 8.56082 3.22916 7.60416C3.11833 7.41166 3.26416 7.16666 3.48583 7.16666H8.51416C8.74166 7.16666 8.88166 7.41166 8.77083 7.60416Z" fill="white"/>
</svg>
